<?xml version="1.0" encoding="UTF-8" standalone="no"?>
<svg
   version="1.1"
   width="500"
   height="500"
   viewBox="0 0 500 500"
   xmlns="http://www.w3.org/2000/svg">
  <path style="fill: black;" d="M 250 10.113281 C 241.01606 10.113281 233.7832 17.346137 233.7832 26.330078 L 233.7832 73.109375 C 233.7832 82.093316 241.01606 89.326172 250 89.326172 C 258.98394 89.326172 266.2168 82.093316 266.2168 73.109375 L 266.2168 26.330078 C 266.2168 17.346137 258.98394 10.113281 250 10.113281 z M 91 74.769531 C 86.854753 74.769531 82.709506 76.358854 79.533203 79.535156 C 73.180598 85.887762 73.180598 96.116145 79.533203 102.46875 L 112.61133 135.54492 C 118.96393 141.89753 129.19232 141.89753 135.54492 135.54492 C 141.89753 129.19232 141.89753 118.96393 135.54492 112.61133 L 102.4668 79.535156 C 99.290494 76.358854 95.145247 74.769531 91 74.769531 z M 408.1582 75.609375 C 404.01296 75.609375 399.86771 77.198697 396.69141 80.375 L 363.61328 113.45312 C 357.26068 119.80573 357.26068 130.03411 363.61328 136.38672 C 369.96589 142.73932 380.19427 142.73932 386.54688 136.38672 L 419.625 103.30859 C 425.97761 96.955988 425.97761 86.727605 419.625 80.375 C 416.4487 77.198697 412.30345 75.609375 408.1582 75.609375 z M 250 127.75195 A 122.249 122.249 0 0 0 127.75195 250 A 122.249 122.249 0 0 0 250 372.24805 A 122.249 122.249 0 0 0 372.24805 250 A 122.249 122.249 0 0 0 250 127.75195 z M 25.140625 233.7832 C 16.156684 233.7832 8.9238281 241.01606 8.9238281 250 C 8.9238281 258.98394 16.156684 266.2168 25.140625 266.2168 L 71.919922 266.2168 C 80.903863 266.2168 88.136719 258.98394 88.136719 250 C 88.136719 241.01606 80.903863 233.7832 71.919922 233.7832 L 25.140625 233.7832 z M 428.08008 233.7832 C 419.09614 233.7832 411.86328 241.01606 411.86328 250 C 411.86328 258.98394 419.09614 266.2168 428.08008 266.2168 L 474.85938 266.2168 C 483.84332 266.2168 491.07617 258.98394 491.07617 250 C 491.07617 241.01606 483.84332 233.7832 474.85938 233.7832 L 428.08008 233.7832 z M 375.92188 359.68945 C 371.77663 359.68945 367.63138 361.27878 364.45508 364.45508 C 358.10247 370.80768 358.10247 381.03607 364.45508 387.38867 L 397.5332 420.4668 C 403.88581 426.8194 414.11419 426.8194 420.4668 420.4668 C 426.8194 414.11419 426.8194 403.88581 420.4668 397.5332 L 387.38867 364.45508 C 384.21237 361.27878 380.06712 359.68945 375.92188 359.68945 z M 123.23828 360.53125 C 119.09303 360.53125 114.94779 362.12057 111.77148 365.29688 L 78.693359 398.37305 C 72.340754 404.72565 72.340754 414.95404 78.693359 421.30664 C 85.045965 427.65925 95.274348 427.65925 101.62695 421.30664 L 134.70508 388.23047 C 141.05768 381.87786 141.05768 371.64948 134.70508 365.29688 C 131.52878 362.12057 127.38353 360.53125 123.23828 360.53125 z M 250 413.05273 C 241.01606 413.05273 233.7832 420.28559 233.7832 429.26953 L 233.7832 476.04883 C 233.7832 485.03277 241.01606 492.26562 250 492.26562 C 258.98394 492.26562 266.2168 485.03277 266.2168 476.04883 L 266.2168 429.26953 C 266.2168 420.28559 258.98394 413.05273 250 413.05273 z " />
</svg>
