<?xml version="1.0" encoding="UTF-8" standalone="no"?>
<!-- Created with Inkscape (http://www.inkscape.org/) -->

<svg
   width="322.50998mm"
   height="131.79167mm"
   viewBox="0 0 322.50997 131.79167"
   version="1.1"
   id="svg1"
   inkscape:version="1.4 (86a8ad7, 2024-10-11)"
   sodipodi:docname="end.svg"
   xmlns:inkscape="http://www.inkscape.org/namespaces/inkscape"
   xmlns:sodipodi="http://sodipodi.sourceforge.net/DTD/sodipodi-0.dtd"
   xmlns="http://www.w3.org/2000/svg"
   xmlns:svg="http://www.w3.org/2000/svg">
  <sodipodi:namedview
     id="namedview1"
     pagecolor="#ffffff"
     bordercolor="#666666"
     borderopacity="1.0"
     inkscape:showpageshadow="2"
     inkscape:pageopacity="0.0"
     inkscape:pagecheckerboard="0"
     inkscape:deskcolor="#d1d1d1"
     inkscape:document-units="mm"
     inkscape:zoom="0.49329115"
     inkscape:cx="686.20732"
     inkscape:cy="358.81446"
     inkscape:window-width="2560"
     inkscape:window-height="1476"
     inkscape:window-x="-12"
     inkscape:window-y="-12"
     inkscape:window-maximized="1"
     inkscape:current-layer="fills" />
  <defs
     id="defs1" />
  <g
     inkscape:label="Шар 1"
     inkscape:groupmode="layer"
     id="layer1"
     transform="translate(0.50682594,0.76023891)">
    <g
       inkscape:groupmode="layer"
       inkscape:label="fills"
       id="fills"
       transform="matrix(0.26458333,0,0,0.26458333,7.9305065,6.9756831)">
      <path
         id="path12"
         style="color:#000000;font-style:normal;font-variant:normal;font-weight:normal;font-stretch:normal;font-size:medium;line-height:normal;font-family:sans-serif;font-variant-ligatures:normal;font-variant-position:normal;font-variant-caps:normal;font-variant-numeric:normal;font-variant-alternates:normal;font-variant-east-asian:normal;font-feature-settings:normal;font-variation-settings:normal;text-indent:0;text-align:start;text-decoration-line:none;text-decoration-style:solid;text-decoration-color:#000000;letter-spacing:normal;word-spacing:normal;text-transform:none;writing-mode:lr-tb;direction:ltr;text-orientation:mixed;dominant-baseline:auto;baseline-shift:baseline;text-anchor:start;white-space:normal;shape-padding:0;shape-margin:0;inline-size:0;clip-rule:nonzero;display:inline;overflow:visible;visibility:visible;isolation:auto;mix-blend-mode:normal;color-interpolation:sRGB;color-interpolation-filters:linearRGB;solid-color:#000000;solid-opacity:1;vector-effect:none;fill:#ffcc00;fill-opacity:1;fill-rule:nonzero;stroke:none;stroke-width:4.82725;stroke-linecap:butt;stroke-linejoin:miter;stroke-miterlimit:4;stroke-dasharray:none;stroke-dashoffset:0;stroke-opacity:1;-inkscape-stroke:none;color-rendering:auto;image-rendering:auto;shape-rendering:auto;text-rendering:auto;enable-background:accumulate;stop-color:#000000"
         d="M 687.73178,85.421398 V 350.61833 h 41.26716 V 241.88387 h 8.57872 68.37281 l 27.12562,27.12562 v -27.12562 -22.49326 l -14.82504,-14.82504 h -89.25211 v -81.81838 h 8.62362 71.38871 l 30.8799,30.8774 v -30.8774 -21.22852 L 823.79391,85.421398 Z"
         sodipodi:nodetypes="ccccccccccccccccccc" />
      <path
         id="path4"
         style="color:#000000;font-style:normal;font-variant:normal;font-weight:normal;font-stretch:normal;font-size:medium;line-height:normal;font-family:sans-serif;font-variant-ligatures:normal;font-variant-position:normal;font-variant-caps:normal;font-variant-numeric:normal;font-variant-alternates:normal;font-variant-east-asian:normal;font-feature-settings:normal;font-variation-settings:normal;text-indent:0;text-align:start;text-decoration-line:none;text-decoration-style:solid;text-decoration-color:#000000;letter-spacing:normal;word-spacing:normal;text-transform:none;writing-mode:lr-tb;direction:ltr;text-orientation:mixed;dominant-baseline:auto;baseline-shift:baseline;text-anchor:start;white-space:normal;shape-padding:0;shape-margin:0;inline-size:0;clip-rule:nonzero;display:inline;overflow:visible;visibility:visible;isolation:auto;mix-blend-mode:normal;color-interpolation:sRGB;color-interpolation-filters:linearRGB;solid-color:#000000;solid-opacity:1;vector-effect:none;fill:#d4aa00;fill-opacity:1;fill-rule:nonzero;stroke:none;stroke-width:4.82725;stroke-linecap:butt;stroke-linejoin:miter;stroke-miterlimit:4;stroke-dasharray:none;stroke-dashoffset:0;stroke-opacity:1;-inkscape-stroke:none;color-rendering:auto;image-rendering:auto;shape-rendering:auto;text-rendering:auto;enable-background:accumulate;stop-color:#000000"
         d="m -12.22218,85.421398 -19.66695,19.666952 v 149.89933 c 0,29.3364 8.64979,53.62622 25.9931,71.97493 l 0.0174,0.0276 0.02,0.0197 c 17.73651,18.24326 43.43777,27.20047 76.06598,27.20047 23.26281,0 42.7041,-4.1583 58.16267,-12.77455 h 0.02 l 0.01,-0.009 c 15.50273,-8.75153 27.22819,-20.69353 34.8088,-35.60205 v -0.0178 l 0.007,-0.01 c 7.50668,-15.01384 11.2379,-31.78298 11.2379,-50.09283 V 114.30817 l 28.88437,-28.886772 h -28.88427 -1.99314 -18.50948 l -20.40532,20.405332 v 66.97587 82.90102 c 0,18.56609 -4.94312,33.26819 -14.72776,44.83185 h -0.007 c -9.21578,10.93034 -24.39252,16.70592 -46.81251,16.70592 -21.72491,0 -37.18793,-5.45992 -47.38627,-15.87524 C 14.5651,290.8622 9.37786,276.06443 9.37786,256.06283 V 113.21057 L 37.16453,85.421398 H 9.37786 6.28713 Z" />
      <path
         id="path1"
         d="M 647.81986 179.23453 L 647.81986 226.28336 C 647.81986 228.4759 647.96382 231.35975 648.24369 234.9982 L 648.2476 235.05289 L 648.25346 235.10758 C 648.34456 235.86704 648.35753 236.14641 648.4351 236.82437 C 645.45691 233.84498 642.16652 231.08919 638.22416 228.82047 C 632.30643 225.33329 624.83722 223.6857 615.9351 223.6857 C 601.47301 223.6857 589.429 228.9743 580.52494 239.33804 L 580.52299 239.34 C 571.66576 249.67343 567.4351 264.74855 567.4351 284.23453 C 567.4351 303.72051 571.66576 318.79563 580.52299 329.12906 L 580.52885 329.13687 L 580.5347 329.14273 C 589.31193 339.23654 601.28328 344.36734 615.72806 344.36734 C 624.78175 344.36734 632.40382 342.64469 638.45853 339.01187 C 642.76817 336.42609 646.47316 333.40588 649.55228 329.96695 L 651.77689 342.29117 L 671.29057 342.29117 L 671.29057 179.23453 L 647.81986 179.23453 z M 863.42729 179.23453 L 863.42729 342.29117 L 886.89799 342.29117 L 886.89799 179.23453 L 863.42729 179.23453 z M 339.88431 184.01187 C 336.30606 184.01187 333.00505 185.23982 330.47025 187.58609 C 327.69356 190.01323 326.48587 193.79381 326.48587 198.24039 C 326.48587 202.58137 327.71894 206.33564 330.42728 208.86343 C 332.96731 211.23412 336.28708 212.4689 339.88431 212.4689 C 343.2501 212.4689 346.40724 211.1979 348.90189 208.87906 C 351.73425 206.37513 353.07376 202.59081 353.07376 198.24039 C 353.07376 193.78907 351.75436 189.97877 348.86283 187.57828 C 346.37369 185.28016 343.23429 184.01187 339.88431 184.01187 z M 391.14017 200.215 L 383.64994 224.60953 L 367.19876 232.08804 L 367.19876 245.08023 L 382.98392 245.08023 L 382.98392 307.29117 C 382.98392 316.58503 384.52605 324.04478 387.93509 329.6232 C 391.21735 334.99418 395.61143 338.95436 400.9683 341.25016 L 401.00736 341.26773 L 401.05033 341.28336 C 406.35336 343.34565 412.08843 344.36734 418.19291 344.36734 C 421.675 344.36734 425.2783 344.00466 428.99955 343.29312 C 432.74137 342.71571 435.71792 341.93493 438.04838 340.76969 L 439.48197 340.05289 L 439.48197 321.01578 L 436.12259 322.04898 C 434.48171 322.55387 432.21337 323.08991 429.40384 323.62711 C 426.62916 324.02106 423.93076 324.2189 421.30814 324.2189 C 416.74748 324.2189 413.31526 322.89719 410.48197 320.20328 C 407.92784 317.51492 406.45658 313.2273 406.45658 306.87515 L 406.45658 245.08023 L 438.65189 245.08023 L 438.65189 225.76383 L 406.45658 225.76383 L 406.45658 200.215 L 391.14017 200.215 z M 255.75931 223.6857 C 248.34924 223.6857 241.24903 225.22211 234.55618 228.27359 C 229.27752 230.57224 224.84601 233.9329 221.31009 238.22281 L 219.09134 225.76383 L 199.57376 225.76383 L 199.57376 342.29117 L 223.04447 342.29117 L 223.04447 281.94937 C 223.04447 269.24566 225.375 259.79636 229.65775 253.4982 C 233.77358 247.44551 241.22194 244.25015 253.06009 244.25015 C 260.90346 244.25015 266.28671 246.28744 269.85306 250.12125 C 273.4194 253.95507 275.38822 259.92021 275.38822 268.44937 L 275.38822 342.29117 L 298.65189 342.29117 L 298.65189 267.20133 C 298.65189 252.40528 295.1587 241.21136 287.67533 234.17203 L 287.67142 234.16812 C 280.27489 227.07595 269.47429 223.6857 255.75931 223.6857 z M 502.10892 223.6857 C 491.86268 223.6857 482.67316 226.16703 474.76127 231.14859 L 474.7515 231.15445 L 474.74173 231.16031 C 466.97645 236.14181 460.89159 243.28096 456.56009 252.37711 L 456.55228 252.39273 L 456.54642 252.40836 C 452.33861 261.54947 450.2847 272.38648 450.2847 284.85758 C 450.2847 297.49312 452.55679 308.37877 457.22025 317.41422 L 457.23197 317.4357 L 457.24369 317.45719 C 462.02872 326.30225 468.72916 333.09321 477.20463 337.6232 L 477.21439 337.62711 L 477.2222 337.63101 C 485.79864 342.13727 495.59305 344.36734 506.47025 344.36734 C 514.21197 344.36734 520.95424 343.7383 526.73392 342.44156 C 532.46586 341.29342 538.24662 339.43646 544.07181 336.87906 L 545.62455 336.19742 L 545.62455 314.57047 L 542.00541 316.12125 C 536.31524 318.55989 530.78054 320.44789 525.39994 321.79508 C 520.24337 322.98396 514.20701 323.59586 507.30228 323.59586 C 496.74588 323.59586 488.93394 320.59287 483.23588 314.65445 C 478.12407 309.06703 475.24473 300.92194 474.60111 290.15445 L 550.60892 290.15445 L 550.60892 276.54898 C 550.60892 266.14261 548.68247 256.94563 544.7515 249.0607 C 544.7495 249.0567 544.74764 249.05494 544.74564 249.05094 C 540.95013 241.02684 535.31019 234.70322 527.96439 230.29312 C 520.71815 225.85943 512.03566 223.6857 502.10892 223.6857 z M 965.10307 223.6857 C 948.63647 223.6857 935.18056 228.95628 925.39799 239.4689 C 915.57695 250.02284 910.78666 264.96521 910.78666 283.81851 C 910.78666 296.45405 913.05961 307.40438 917.7144 316.56851 L 917.7183 316.57437 L 917.72221 316.58219 C 922.34539 325.5396 928.72436 332.52722 936.76518 337.35172 L 936.78862 337.36539 L 936.81205 337.37906 C 944.97711 342.0448 954.25815 344.36734 964.48002 344.36734 C 980.95202 344.36734 994.41492 339.01856 1004.1929 328.36734 C 1014.1383 317.68385 1019.0054 302.67174 1019.0054 283.81851 C 1019.0054 271.19162 1016.7339 260.37832 1012.0679 251.47476 C 1007.5789 242.50882 1001.1803 235.57509 992.99369 230.89273 C 984.95017 226.07522 975.58904 223.6857 965.10307 223.6857 z M 1022.3511 225.55484 L 1054.3081 342.08219 L 1078.9585 342.08219 L 1099.4644 277.78531 L 1099.4644 277.77945 C 1101.4255 271.89528 1103.0399 266.20988 1104.3062 260.72281 L 1104.3062 260.71695 L 1104.3062 260.70914 C 1104.6098 259.35958 1104.7033 258.76028 1104.9664 257.55679 C 1105.2383 258.76363 1105.3741 259.35273 1105.6792 260.70914 L 1105.689 260.7482 L 1105.6988 260.78531 C 1107.0964 266.23605 1108.7032 271.82039 1110.5171 277.54117 L 1110.5074 277.51383 L 1130.1773 342.08219 L 1155.4683 342.08219 L 1187.8609 225.55484 L 1163.7476 225.55484 L 1147.6597 286.90055 L 1147.6597 286.9025 C 1145.9959 293.28054 1144.402 299.52128 1142.8765 305.6232 L 1142.8667 305.65055 L 1142.857 305.67789 C 1142.4825 307.3255 1142.4259 308.13261 1142.1206 309.5939 C 1141.7703 308.16755 1141.6719 307.11676 1141.2496 305.58023 C 1139.8597 300.02486 1138.398 294.87372 1136.8628 290.12515 L 1117.1929 225.55484 L 1093.4253 225.55484 L 1073.1206 290.10172 C 1072.1333 293.20516 1071.1526 296.70824 1070.1753 300.61539 C 1070.1748 300.61739 1070.1753 300.61925 1070.1753 300.62125 L 1070.1753 300.63687 C 1069.3418 303.85202 1068.5852 306.91815 1067.8531 309.9318 C 1067.4936 308.19008 1067.3599 307.00156 1066.9175 305.05484 C 1065.5276 298.93952 1064.0676 292.89166 1062.5386 286.91422 L 1062.5386 286.91031 L 1046.6636 225.55484 L 1022.3511 225.55484 z M 327.94095 225.76383 L 327.94095 342.29117 L 351.41166 342.29117 L 351.41166 225.76383 L 327.94095 225.76383 z M 501.89994 243.83414 C 510.62238 243.83414 516.37611 246.45297 520.14994 251.68765 L 520.1597 251.69937 L 520.16752 251.71109 C 523.66893 256.45494 525.63531 262.68881 526.11674 270.42203 L 475.22611 270.42203 C 476.4147 262.30274 479.01283 255.98881 483.05619 251.49429 L 483.06009 251.49234 L 483.06009 251.49039 C 487.69215 246.35985 493.74143 243.83414 501.89994 243.83414 z M 618.42924 244.04117 C 630.22849 244.04117 637.52609 247.42427 641.55424 254.01578 L 641.5601 254.02554 L 641.56596 254.03531 C 645.74839 260.75255 648.02689 270.87956 648.02689 284.44156 L 648.02689 287.76578 C 648.02689 300.46028 645.62245 309.65878 641.27103 315.50211 L 641.26908 315.50601 L 641.26517 315.50992 C 637.17172 321.04811 629.93836 324.01187 618.63627 324.01187 C 609.30815 324.01187 602.89159 320.81686 598.35892 314.15055 C 593.91628 307.41335 591.52885 297.61845 591.52885 284.65055 C 591.52885 271.81969 593.9048 261.8664 598.39799 254.67203 L 598.39994 254.66812 C 602.97337 247.42919 609.29387 244.04117 618.42924 244.04117 z M 964.68705 244.25015 C 975.47214 244.25015 982.73355 247.60456 987.48979 254.36344 C 992.33949 261.25511 994.90971 271.00948 994.90971 283.81851 C 994.90971 296.62131 992.34469 306.52569 987.47026 313.715 C 982.69858 320.61662 975.52131 324.01187 964.89604 324.01187 C 954.13561 324.01187 946.89238 320.61203 942.12651 313.73258 C 937.38269 306.54275 934.88041 296.62619 934.88041 283.81851 C 934.88041 271.00037 937.38855 261.23009 942.11088 254.33804 C 946.72897 247.59812 953.90196 244.25015 964.68705 244.25015 z " />
    </g>
    <g
       inkscape:groupmode="layer"
       id="strokes"
       inkscape:label="strokes"
       transform="matrix(0.26458333,0,0,0.26458333,7.9305065,6.9756831)" />
  </g>
</svg>
