
<svg xmlns="http://www.w3.org/2000/svg"  version="1.1" width="100%" height="100%" viewBox="0 0 500 500">
    <path xmlns="http://www.w3.org/2000/svg" fill_rule="evenodd" stroke="none" fill_opacity="1.0" fill="rgb(255, 153, 0)" d=" M 90.407, 156.263 81.027, 156.263 81.027, 163.678 81.027, 171.093 81.027, 178.507 81.027, 185.922 81.027, 193.337 81.027, 200.752 81.027, 208.166 81.027, 215.581 81.027, 222.996 81.027, 230.411 81.027, 237.825 81.027, 245.240 178.108, 245.240 194.233, 261.362 194.233, 285.823 194.233, 315.322 164.729, 285.824 90.359, 285.823  z  M 90.359, 285.823 81.027, 285.823 81.027, 295.677 81.027, 305.531 81.027, 315.385 81.027, 325.239 81.027, 335.093 81.027, 344.947 81.027, 354.801 81.027, 364.655 81.027, 374.509 81.027, 384.363 81.027, 394.217 81.027, 404.071 36.139, 404.071 36.139, 115.672 184.137, 115.672 201.646, 133.178 201.646, 156.263 201.646, 189.842 168.058, 156.264 90.407, 156.263  z"/><path xmlns="http://www.w3.org/2000/svg" id="path1" d="m 70.945312,116.25781 c -6.935528,6.93427 -13.871206,13.86838 -20.80664,20.80274 0.0011,54.86908 -0.0086,109.7384 0.03694,164.60733 0.170894,15.03614 2.447039,30.17061 7.899706,44.23604 4.784245,12.45693 12.052215,23.995 21.44581,33.49023 9.381256,9.40228 21.012142,16.40502 33.472192,20.91188 14.72929,5.34268 30.4571,7.44404 46.07108,7.62087 14.86023,0.16868 29.84211,-1.17526 44.18288,-5.21888 9.6581,-2.7187 18.94875,-6.81109 27.32218,-12.35793 12.10083,-7.88544 22.50382,-18.49872 29.63754,-31.09399 5.57904,-9.80706 9.37127,-20.57578 11.6871,-31.6008 1.91555,-9.11246 2.70708,-18.43488 2.67817,-27.73928 0.0307,-44.56287 0.003,-89.12579 0.0103,-133.68868 -1.7e-4,-6.38046 -3.4e-4,-12.76093 -5.1e-4,-19.1414 10.4726,-10.47141 20.94576,-20.94227 31.41797,-31.41406 -17.90625,0 -35.8125,-1e-5 -53.71875,0 -7.39831,7.39726 -14.797,14.79414 -22.19531,22.1914 -0.007,54.97311 0.0203,109.94651 -0.0386,164.91943 -0.0664,4.05608 -0.37526,8.10889 -0.94581,12.12549 -0.28971,1.98435 -0.69107,4.25072 -1.1734,6.3513 -2.36966,10.69724 -7.28249,20.89682 -14.57173,29.1132 -6.15353,6.9872 -14.63302,11.59126 -23.52725,14.07987 -6.07365,1.7365 -12.35675,2.65117 -18.6534,3.05329 -0.54151,0.0244 -1.42362,0.0749 -2.0957,0.10937 -0.75126,0.0258 -1.80234,0.0726 -2.67215,0.0859 -12.06094,0.24759 -24.35773,-0.80234 -35.73215,-5.06246 -2.35736,-0.89464 -4.55595,-1.85111 -6.80273,-3.04101 -2.00139,-1.0686 -3.92192,-2.25384 -5.71209,-3.53653 -5.52912,-3.90028 -10.15777,-9.01515 -13.61839,-14.82135 -4.638173,-7.67534 -7.267253,-16.42398 -8.517179,-25.26517 -0.05254,-0.43368 -0.153431,-1.08717 -0.206531,-1.55137 -0.339215,-2.61498 -0.525302,-5.4439 -0.650891,-7.95254 -0.253451,-6.56525 -0.07888,-13.13686 -0.133026,-19.70507 -0.02276,-46.95768 -0.0065,-93.91537 -0.0096,-140.87305 10.074809,-10.07363 20.150199,-20.14667 30.224609,-30.2207 -17.90625,0 -35.8125,-1e-5 -53.71875,0 -0.195312,0.19531 -0.390625,0.39062 -0.585938,0.58593 z" style="fill:#cc7c00;fill-opacity:1"/><path xmlns="http://www.w3.org/2000/svg" id="path1" style="fill:#8e1dff;fill-opacity:1" d="m 400.99805,104.33203 c 2.39655,5.11056 4.79257,10.22208 7.18945,15.33203 -5.40128,1.78329 -10.93516,3.12509 -16.51123,4.23076 -7.77762,1.6779 -15.32572,4.52999 -22.10362,8.72219 -11.62089,7.12857 -20.83223,18.17818 -25.49654,31.01167 -4.30462,11.60283 -4.92295,24.52847 -1.73471,36.48774 3.10807,11.89455 10.03491,22.73489 19.49548,30.58116 8.30073,6.99283 18.47511,11.57539 29.07256,13.75818 7.74541,1.64337 15.67575,2.06019 23.48163,3.31375 1.39751,0.2507 3.05743,0.55261 4.52578,0.96536 5.86328,1.58598 11.39202,5.09386 14.56187,10.37489 4.6227,7.55154 4.33634,17.80134 -0.79035,25.0386 -1.52341,2.15851 -3.40382,4.19821 -5.89553,5.22023 -3.36802,1.45905 -6.93928,2.38224 -10.47826,3.32492 -7.4992,1.93179 -15.14374,3.20851 -22.77628,4.47293 -7.8795,1.41625 -15.60433,3.93354 -22.57151,7.91857 -12.36372,6.91537 -22.15629,18.32206 -27.01357,31.63965 -5.37401,14.44487 -5.03493,30.90906 0.94315,45.11603 4.40072,10.61041 11.92788,19.88467 21.39902,26.3832 5.7372,4.00353 12.16869,6.9465 18.86229,8.94778 0.59202,0.18496 1.33604,0.65303 1.30953,-0.31418 3.3986,-12.0709 6.79849,-24.14144 10.1949,-36.21296 -3.15027,-1.01446 -6.28124,-2.23986 -8.94983,-4.24118 -5.0935,-3.58411 -8.41175,-9.44683 -9.06495,-15.62056 -0.79847,-6.77161 1.45434,-13.95127 6.40059,-18.72445 3.85572,-3.79071 9.01645,-5.98149 14.2821,-6.94467 4.2458,-0.84915 8.52341,-1.38819 12.79612,-2.25442 8.44994,-1.61907 16.85797,-3.58239 25.00416,-6.37261 6.96512,-2.44303 13.6521,-5.98955 19.00079,-11.14169 10.58568,-9.90058 17.27791,-23.76713 18.66203,-38.17754 1.30073,-12.84618 -1.51595,-26.10007 -8.11048,-37.21829 -6.09095,-10.4418 -15.47916,-18.85309 -26.39479,-24.00488 -6.81091,-3.2859 -14.18635,-5.26861 -21.65699,-6.32705 -6.02426,-0.92406 -12.11581,-1.34806 -18.12681,-2.35838 -4.87457,-0.822 -9.72397,-2.47105 -13.6131,-5.60867 -4.74209,-3.65589 -7.76671,-9.38838 -8.15329,-15.35939 -0.53084,-6.54439 2.01752,-13.24392 6.77484,-17.77174 3.82193,-3.76426 8.89333,-5.9931 14.08801,-7.10004 4.57123,-0.97323 9.14932,-1.9299 13.64312,-3.22544 3.81341,-1.06195 7.57203,-2.31003 11.31106,-3.60759 3.42247,7.29885 6.84562,14.59739 10.26758,21.89648 15.87299,-23.11788 31.74546,-46.23611 47.61914,-69.35351 -27.63038,-1.9586 -55.26053,-3.92037 -82.89063,-5.88282 0.48242,1.02865 0.96484,2.0573 1.44727,3.08594 z"/>
</svg>
