<?xml version="1.0" encoding="UTF-8" standalone="no"?>
<!-- Created with Inkscape (http://www.inkscape.org/) -->

<svg
   width="132.29167mm"
   height="132.29167mm"
   viewBox="0 0 132.29168 132.29167"
   version="1.1"
   id="svg1"
   inkscape:version="1.4 (86a8ad7, 2024-10-11)"
   sodipodi:docname="actuality.svg"
   xml:space="preserve"
   xmlns:inkscape="http://www.inkscape.org/namespaces/inkscape"
   xmlns:sodipodi="http://sodipodi.sourceforge.net/DTD/sodipodi-0.dtd"
   xmlns="http://www.w3.org/2000/svg"
   xmlns:svg="http://www.w3.org/2000/svg"><sodipodi:namedview
     id="namedview1"
     pagecolor="#ffffff"
     bordercolor="#666666"
     borderopacity="1.0"
     inkscape:showpageshadow="2"
     inkscape:pageopacity="0.0"
     inkscape:pagecheckerboard="0"
     inkscape:deskcolor="#d1d1d1"
     inkscape:document-units="mm"
     inkscape:zoom="1.4765517"
     inkscape:cx="73.820646"
     inkscape:cy="297.9916"
     inkscape:window-width="2560"
     inkscape:window-height="1476"
     inkscape:window-x="-12"
     inkscape:window-y="-12"
     inkscape:window-maximized="1"
     inkscape:current-layer="layer1" /><defs
     id="defs1" /><g
     inkscape:label="Шар 1"
     inkscape:groupmode="layer"
     id="layer1"><path
       style="fill:#000000;stroke-width:0.999993"
       d="m 24.016956,115.73754 v -4.57398 h 5.748528 5.748527 l 0.149516,-12.638665 0.149516,-12.638669 1.685154,-3.129575 c 2.78618,-5.174331 8.139832,-9.929689 17.678253,-15.702628 l 1.54891,-0.937446 -3.842769,-2.302886 C 38.073572,54.938975 35.572306,50.472958 35.572306,32.906143 V 21.128119 h -5.777675 -5.777675 v -4.573994 -4.573992 h 42.12888 42.128884 v 4.573992 4.573994 h -5.77768 -5.777669 v 11.778024 c 0,17.538052 -2.713484,22.344494 -17.553604,31.093067 l -3.5957,2.119744 1.547032,0.916591 c 9.351914,5.540856 15.159098,10.776741 17.721224,15.977844 l 1.640304,3.329829 0.143174,12.410171 0.143165,12.410171 h 5.754874 5.75488 v 4.57398 4.574 H 66.145836 24.016956 Z M 87.330645,99.304492 V 87.686174 L 85.425152,84.920657 C 82.728484,81.006877 76.141623,75.851061 69.475431,72.436134 l -3.263141,-1.671626 -4.125747,2.136819 c -14.732844,7.63048 -17.366252,11.758905 -17.366252,27.225293 0,12.63201 -3.095053,11.06933 21.631158,10.92157 l 20.979196,-0.12538 z M 72.319337,58.241644 c 5.557757,-3.233233 10.891811,-7.65123 13.085416,-10.838158 l 1.925892,-2.797987 V 32.987177 21.368854 H 66.145836 44.961029 V 32.96061 44.552365 l 1.376503,2.078795 c 2.845406,4.297128 8.921688,9.20297 15.909283,12.84477 4.380322,2.282939 3.932209,2.337851 10.072522,-1.234286 z"
       id="path1" /></g></svg>
