<?xml version="1.0" encoding="UTF-8" standalone="no"?>
<!-- Created with Inkscape (http://www.inkscape.org/) -->

<svg
   width="132.29167mm"
   height="132.29167mm"
   viewBox="0 0 132.29168 132.29167"
   version="1.1"
   id="svg1"
   inkscape:version="1.4 (86a8ad7, 2024-10-11)"
   sodipodi:docname="diary.svg"
   xml:space="preserve"
   xmlns:inkscape="http://www.inkscape.org/namespaces/inkscape"
   xmlns:sodipodi="http://sodipodi.sourceforge.net/DTD/sodipodi-0.dtd"
   xmlns="http://www.w3.org/2000/svg"
   xmlns:svg="http://www.w3.org/2000/svg"><sodipodi:namedview
     id="namedview1"
     pagecolor="#ffffff"
     bordercolor="#666666"
     borderopacity="1.0"
     inkscape:showpageshadow="2"
     inkscape:pageopacity="0.0"
     inkscape:pagecheckerboard="0"
     inkscape:deskcolor="#d1d1d1"
     inkscape:document-units="mm"
     inkscape:zoom="1.4765517"
     inkscape:cx="73.820646"
     inkscape:cy="297.9916"
     inkscape:window-width="2560"
     inkscape:window-height="1476"
     inkscape:window-x="-12"
     inkscape:window-y="-12"
     inkscape:window-maximized="1"
     inkscape:current-layer="layer1" /><defs
     id="defs1" /><g
     inkscape:label="Шар 1"
     inkscape:groupmode="layer"
     id="layer1"><path
       style="fill:#000000;stroke-width:0.999998"
       d="m 62.116136,110.46312 c -12.471192,-5.22747 -28.566426,-5.43156 -45.896667,-0.58196 -3.510079,0.98224 -4.62956,0.79696 -5.547425,-0.91808 -0.304655,-0.56925 -0.463305,-13.20601 -0.463305,-36.902997 0,-42.568011 -0.8470597,-37.849 6.793872,-37.849 h 4.982173 v -5.187324 c 0,-8.200824 0.249233,-8.405187 10.643734,-8.727524 13.119804,-0.406848 22.855749,2.976019 30.684632,10.66173 l 3.056218,3.000327 2.605342,-2.548844 c 7.376005,-7.216049 17.688725,-10.889645 30.686684,-10.931204 10.837726,-0.03465 11.096656,0.164938 11.096656,8.553689 v 5.17915 l 4.64248,0.0069 c 7.38774,0.01104 6.68064,-4.039039 6.68064,38.265213 0,42.754944 0.77264,39.129204 -7.87303,36.945714 -16.994911,-4.29212 -30.352099,-4.07867 -43.143684,0.68946 -4.842366,1.80502 -5.412125,1.82696 -8.94832,0.34472 z m -39.899783,-8.06323 c 13.236385,-2.702574 22.999026,-2.708248 34.119545,-0.0198 5.37688,1.29988 5.475114,1.22109 1.594563,-1.27887 C 49.39271,95.600937 42.694476,93.651484 30.898868,93.233914 20.80682,92.876651 21.984784,96.490916 21.984784,65.88347 V 40.099106 h -2.944011 -2.944011 v 31.704738 c 0,17.437606 0.155159,31.704736 0.344799,31.704736 0.18964,0 2.788296,-0.4989 5.774792,-1.10869 z M 116.19315,71.803844 V 40.099106 h -2.70669 -2.7067 l -0.12408,25.794303 c -0.0983,20.429423 -0.24655,25.916717 -0.71287,26.382871 -0.42548,0.425327 -2.49822,0.605438 -7.47326,0.649392 -8.400044,0.07421 -13.491702,1.234689 -20.46159,4.663549 -4.719253,2.321655 -10.245816,5.715159 -8.547612,5.248549 11.043002,-3.034291 25.021601,-3.134509 37.524162,-0.26902 1.99288,0.45674 3.98008,0.85506 4.41602,0.88514 0.74785,0.0516 0.79262,-1.73617 0.79262,-31.650046 z M 73.805271,95.141056 c 8.937634,-5.260073 16.662527,-7.71631 25.969356,-8.257311 L 104.4171,86.613879 V 56.50657 26.399261 l -6.680642,0.235506 C 85.69155,27.059374 76.315896,31.0418 70.932036,38.020282 l -1.843069,2.388961 v 28.605658 c 0,15.733113 0.113237,28.60566 0.251637,28.60566 0.138401,0 2.147501,-1.115776 4.464667,-2.479505 z M 63.200944,68.659496 V 40.151358 L 61.04955,37.311946 C 55.693852,30.243487 46.447331,26.353707 34.894756,26.309278 l -6.339334,-0.02438 -0.307735,2.038162 c -0.169255,1.120989 -0.322842,14.827627 -0.341307,30.459195 l -0.03357,28.421034 3.736629,0.009 c 9.602935,0.02306 18.86094,2.600924 27.552008,7.671777 2.09717,1.223613 3.86399,2.237987 3.926268,2.254172 0.06227,0.01615 0.113231,-12.799236 0.113231,-28.478714 z"
       id="path1" /></g></svg>
