<?xml version="1.0" encoding="UTF-8" standalone="no"?>
<!-- Created with Inkscape (http://www.inkscape.org/) -->

<svg
   width="132.29167mm"
   height="132.29167mm"
   viewBox="0 0 132.29168 132.29167"
   version="1.1"
   id="svg1"
   inkscape:version="1.4 (86a8ad7, 2024-10-11)"
   sodipodi:docname="interface.svg"
   xml:space="preserve"
   xmlns:inkscape="http://www.inkscape.org/namespaces/inkscape"
   xmlns:sodipodi="http://sodipodi.sourceforge.net/DTD/sodipodi-0.dtd"
   xmlns="http://www.w3.org/2000/svg"
   xmlns:svg="http://www.w3.org/2000/svg"><sodipodi:namedview
     id="namedview1"
     pagecolor="#ffffff"
     bordercolor="#666666"
     borderopacity="1.0"
     inkscape:showpageshadow="2"
     inkscape:pageopacity="0.0"
     inkscape:pagecheckerboard="0"
     inkscape:deskcolor="#d1d1d1"
     inkscape:document-units="mm"
     inkscape:zoom="1.4765517"
     inkscape:cx="233.31388"
     inkscape:cy="190.98553"
     inkscape:window-width="2560"
     inkscape:window-height="1476"
     inkscape:window-x="-12"
     inkscape:window-y="-12"
     inkscape:window-maximized="1"
     inkscape:current-layer="layer1" /><defs
     id="defs1" /><g
     inkscape:label="Шар 1"
     inkscape:groupmode="layer"
     id="layer1"><path
       style="fill:#000000;stroke:#000000;stroke-width:4;stroke-dasharray:none"
       d="m 45.016772,125.5964 c -8.378899,-1.54261 -15.296791,-8.23072 -17.759529,-17.16962 l -0.547364,-1.98675 -0.06434,-33.709972 -0.06434,-33.709974 0.491074,-1.457731 c 1.17038,-3.474219 4.01311,-5.931686 7.507324,-6.48989 2.229754,-0.356205 4.749114,0.126986 6.327062,1.213474 l 0.64277,0.442576 v -5.576445 c 0,-6.070811 0.178593,-7.339139 1.331758,-9.457883 0.82398,-1.513922 2.804547,-3.345661 4.452563,-4.117978 1.166543,-0.546682 1.64059,-0.630122 3.579888,-0.630122 2.08599,0 2.345667,0.05478 3.887687,0.820211 l 1.652392,0.82021 0.409297,-1.366386 c 0.499953,-1.669029 1.930724,-3.8650162 3.144605,-4.8264278 0.495908,-0.3927668 1.515475,-1.0006003 2.265704,-1.3507412 1.184038,-0.5526049 1.657088,-0.6366196 3.584533,-0.6366196 1.935818,0 2.398175,0.082907 3.60656,0.6467042 3.960258,1.8477411 5.742834,4.9519524 5.742834,10.0006814 v 2.546707 l 1.374313,-0.698374 c 4.83894,-2.458972 10.309062,-0.469805 12.723415,4.626772 l 0.74444,1.571476 0.06382,23.665655 c 0.0351,13.01611 0.140279,23.660626 0.233735,23.654479 0.09346,-0.0062 0.853595,-0.861287 1.689197,-1.900312 2.565459,-3.190012 4.959711,-4.743615 8.43643,-5.474316 2.82999,-0.594772 6.30388,0.0183 8.69293,1.53412 1.53371,0.973125 4.76043,3.666459 4.93378,4.118207 0.0779,0.203116 0.14172,0.572076 0.14172,0.819913 0,0.361644 -17.551379,34.396016 -21.65879,41.999196 -3.390048,6.27527 -8.173746,10.10651 -14.861052,11.90214 -1.284216,0.34483 -3.253833,0.39956 -16.187418,0.44975 -11.86626,0.046 -15.073169,-0.007 -16.516995,-0.27273 z m 31.402611,-3.95232 c 1.893414,-0.40128 3.953119,-1.21316 5.748078,-2.26574 1.681364,-0.98597 5.074092,-4.38023 6.054244,-6.05698 0.408853,-0.69943 5.430669,-10.26464 11.159606,-21.256023 l 10.416269,-19.984331 -0.99213,-0.910274 c -1.38977,-1.275095 -3.51806,-2.225777 -5.37,-2.398713 -1.91415,-0.178745 -4.234429,0.481887 -5.826039,1.6588 -0.59851,0.442566 -2.645495,2.700552 -4.548849,5.017747 -2.112938,2.572339 -3.720995,4.320917 -4.129161,4.489984 -0.858335,0.355534 -2.198159,-0.215275 -2.380312,-1.014092 -0.06679,-0.292936 -0.148444,-12.260257 -0.181437,-26.594049 -0.05511,-23.943053 -0.09226,-26.132675 -0.45706,-26.93785 -1.382445,-3.05133 -4.437227,-4.448028 -7.091492,-3.242352 -1.189183,0.540176 -2.745667,2.289163 -3.105231,3.489281 -0.201455,0.672397 -0.274876,6.298066 -0.274876,21.061576 0,22.126595 0.05908,21.21255 -1.404053,21.722601 -0.867817,0.302522 -1.670566,0.04508 -2.195251,-0.704009 -0.33762,-0.48202 -0.374189,-3.060553 -0.374189,-26.384369 0,-28.810494 0.07623,-27.408642 -1.590901,-29.257735 -0.474824,-0.526649 -1.284038,-1.149156 -1.798255,-1.383348 -1.12109,-0.510583 -3.103316,-0.561775 -4.188922,-0.10818 -1.336023,0.558226 -2.643246,1.930818 -3.16373,3.321935 -0.470289,1.25696 -0.477466,1.666984 -0.477466,27.276806 0,28.45553 0.08237,26.753272 -1.320309,27.286568 -0.630792,0.239828 -1.972593,-0.191052 -2.332481,-0.749007 -0.112109,-0.17381 -0.256425,-10.842409 -0.320703,-23.707999 l -0.116867,-23.39198 -0.706734,-1.142952 c -1.017883,-1.646149 -2.344395,-2.505538 -4.05885,-2.62955 -1.808979,-0.13085 -2.919414,0.262914 -4.116071,1.45957 -1.850955,1.850955 -1.753281,0.409943 -1.753281,25.866696 0,14.414764 -0.08422,22.836934 -0.232249,23.226287 -0.294081,0.773492 -1.623655,1.372061 -2.395695,1.078533 -1.269401,-0.482626 -1.219569,0.08437 -1.345549,-15.309701 -0.115176,-14.073929 -0.124168,-14.294104 -0.621365,-15.215515 -1.08038,-2.002172 -2.754162,-3.019096 -4.988271,-3.030677 -1.25648,-0.0065 -1.714459,0.106851 -2.647655,0.655377 -1.350329,0.793715 -2.371161,2.291369 -2.725605,3.998712 -0.175269,0.844271 -0.23073,11.041069 -0.181953,33.453335 l 0.07016,32.238898 0.512012,1.80961 c 1.140977,4.03258 2.386288,6.35209 4.81204,8.96292 2.826585,3.04223 5.780292,4.80138 9.393525,5.59451 2.118037,0.46493 29.057069,0.46982 31.247056,0.005 z"
       id="path3" /></g></svg>
