<?xml version="1.0" encoding="UTF-8" standalone="no"?>
<!-- Created with Inkscape (http://www.inkscape.org/) -->

<svg
   width="132.29167mm"
   height="132.29167mm"
   viewBox="0 0 132.29168 132.29167"
   version="1.1"
   id="svg1"
   inkscape:version="1.4 (86a8ad7, 2024-10-11)"
   sodipodi:docname="security.svg"
   xml:space="preserve"
   xmlns:inkscape="http://www.inkscape.org/namespaces/inkscape"
   xmlns:sodipodi="http://sodipodi.sourceforge.net/DTD/sodipodi-0.dtd"
   xmlns="http://www.w3.org/2000/svg"
   xmlns:svg="http://www.w3.org/2000/svg"><sodipodi:namedview
     id="namedview1"
     pagecolor="#ffffff"
     bordercolor="#666666"
     borderopacity="1.0"
     inkscape:showpageshadow="2"
     inkscape:pageopacity="0.0"
     inkscape:pagecheckerboard="0"
     inkscape:deskcolor="#d1d1d1"
     inkscape:document-units="mm"
     inkscape:zoom="1.4765517"
     inkscape:cx="73.820646"
     inkscape:cy="297.9916"
     inkscape:window-width="2560"
     inkscape:window-height="1476"
     inkscape:window-x="-12"
     inkscape:window-y="-12"
     inkscape:window-maximized="1"
     inkscape:current-layer="layer1" /><defs
     id="defs1" /><g
     inkscape:label="Шар 1"
     inkscape:groupmode="layer"
     id="layer1"><path
       style="fill:#000000;stroke-width:1"
       d="m 31.215453,122.50968 c -3.547926,-0.69289 -6.59957,-3.82495 -7.293892,-7.48609 -0.403705,-2.12873 -0.296443,-60.906019 0.11259,-61.697002 0.602844,-1.16577 1.231206,-1.319233 5.401697,-1.319233 h 3.76931 l 8.55e-4,-6.134922 c 0.0032,-21.759736 13.123626,-36.1647844 32.939778,-36.1647844 19.816151,0 32.936626,14.4050484 32.939775,36.1647844 l 8.56e-4,6.134922 h 3.769308 c 4.17049,0 4.79885,0.153463 5.4017,1.319233 0.40855,0.790049 0.51625,59.553062 0.11312,61.713172 -0.69618,3.73024 -3.75024,6.7775 -7.50658,7.48988 -1.474109,0.27956 -68.212832,0.26043 -69.648584,-0.0199 z M 72.14785,103.45255 c 1.190176,-0.8082 1.201432,-1.07303 0.366062,-8.613001 l -0.764446,-6.89983 1.07605,-1.048107 c 5.398463,-5.258267 2.185269,-14.805964 -5.340833,-15.869772 -8.802669,-1.24425 -14.338654,9.7138 -8.017764,15.870539 l 1.076838,1.048873 -0.756804,6.807294 c -1.085037,9.759664 -1.505172,9.186084 6.690488,9.133994 4.49739,-0.0286 5.152452,-0.0783 5.670409,-0.42999 z M 84.882646,45.540815 c -0.414429,-29.821685 -37.059215,-29.821685 -37.473644,0 l -0.08987,6.46654 H 66.145824 84.97251 Z"
       id="path1" /></g></svg>
